<svg xmlns="http://www.w3.org/2000/svg" xmlns:xlink="http://www.w3.org/1999/xlink" width="1920" zoomAndPan="magnify" viewBox="0 0 1440 809.999993" height="1080" preserveAspectRatio="xMidYMid meet" version="1.0"><defs><g/><clipPath id="1e87c2dfba"><path d="M 0.00390625 397 L 450 397 L 450 792.441406 L 0.00390625 792.441406 Z M 0.00390625 397 " clip-rule="nonzero"/></clipPath><clipPath id="1c761f5f70"><path d="M 0.00390625 214 L 450 214 L 450 609 L 0.00390625 609 Z M 0.00390625 214 " clip-rule="nonzero"/></clipPath><clipPath id="54f9b8e4ce"><path d="M 0.00390625 17.691406 L 450 17.691406 L 450 413 L 0.00390625 413 Z M 0.00390625 17.691406 " clip-rule="nonzero"/></clipPath></defs><g clip-path="url(#1e87c2dfba)"><path fill="#acd4e3" d="M 326.714844 397.75 L 124.148438 397.75 C 116.292969 397.75 109.085938 401.945312 105.214844 408.726562 L 3.875 584.117188 C 0.00390625 590.898438 0.00390625 599.289062 3.875 605.960938 L 105.214844 781.460938 C 109.085938 788.242188 116.292969 792.4375 124.148438 792.4375 L 326.714844 792.4375 C 334.570312 792.4375 341.777344 788.242188 345.648438 781.460938 L 446.878906 605.960938 C 450.753906 599.183594 450.753906 590.898438 446.878906 584.117188 L 345.648438 408.617188 C 341.667969 401.945312 334.460938 397.75 326.714844 397.75 " fill-opacity="1" fill-rule="evenodd"/></g><g clip-path="url(#1c761f5f70)"><path fill="#0979bb" d="M 326.714844 214.179688 L 124.148438 214.179688 C 116.292969 214.179688 109.085938 218.375 105.214844 225.15625 L 3.875 400.546875 C 0.00390625 407.328125 0.00390625 415.71875 3.875 422.390625 L 105.214844 597.890625 C 109.085938 604.671875 116.292969 608.867188 124.148438 608.867188 L 326.714844 608.867188 C 334.570312 608.867188 341.777344 604.671875 345.648438 597.890625 L 446.878906 422.390625 C 450.753906 415.613281 450.753906 407.328125 446.878906 400.546875 L 345.648438 225.046875 C 341.667969 218.375 334.460938 214.179688 326.714844 214.179688 " fill-opacity="1" fill-rule="evenodd"/></g><g clip-path="url(#54f9b8e4ce)"><path fill="#1a5e9d" d="M 326.714844 17.695312 L 124.148438 17.695312 C 116.292969 17.695312 109.085938 21.894531 105.214844 28.671875 L 3.875 204.066406 C 0.00390625 210.84375 0.00390625 219.238281 3.875 225.910156 L 105.214844 401.410156 C 109.085938 408.1875 116.292969 412.382812 124.148438 412.382812 L 326.714844 412.382812 C 334.570312 412.382812 341.777344 408.1875 345.648438 401.410156 L 446.878906 225.910156 C 450.753906 219.128906 450.753906 210.84375 446.878906 204.066406 L 345.648438 28.566406 C 341.667969 21.894531 334.460938 17.695312 326.714844 17.695312 " fill-opacity="1" fill-rule="evenodd"/></g><g fill="#000000" fill-opacity="1"><g transform="translate(680.992004, 337.731498)"><g><path d="M 89.703125 -213.828125 L 89.703125 -207.78125 C 82.859375 -207.582031 77.671875 -206.828125 74.140625 -205.515625 C 70.617188 -204.210938 68.253906 -201.796875 67.046875 -198.265625 C 65.835938 -194.742188 65.234375 -189.257812 65.234375 -181.8125 L 65.234375 -32.015625 C 65.234375 -24.765625 65.835938 -19.328125 67.046875 -15.703125 C 68.253906 -12.078125 70.617188 -9.660156 74.140625 -8.453125 C 77.671875 -7.242188 82.859375 -6.441406 89.703125 -6.046875 L 89.703125 0 C 85.066406 -0.40625 79.273438 -0.65625 72.328125 -0.75 C 65.378906 -0.851562 58.382812 -0.90625 51.34375 -0.90625 C 43.488281 -0.90625 36.140625 -0.851562 29.296875 -0.75 C 22.453125 -0.65625 16.914062 -0.40625 12.6875 0 L 12.6875 -6.046875 C 19.53125 -6.441406 24.710938 -7.242188 28.234375 -8.453125 C 31.765625 -9.660156 34.128906 -12.078125 35.328125 -15.703125 C 36.535156 -19.328125 37.140625 -24.765625 37.140625 -32.015625 L 37.140625 -181.8125 C 37.140625 -189.257812 36.535156 -194.742188 35.328125 -198.265625 C 34.128906 -201.796875 31.765625 -204.210938 28.234375 -205.515625 C 24.710938 -206.828125 19.53125 -207.582031 12.6875 -207.78125 L 12.6875 -213.828125 C 16.914062 -213.628906 22.453125 -213.425781 29.296875 -213.21875 C 36.140625 -213.019531 43.488281 -212.921875 51.34375 -212.921875 C 58.382812 -212.921875 65.378906 -213.019531 72.328125 -213.21875 C 79.273438 -213.425781 85.066406 -213.628906 89.703125 -213.828125 Z M 89.703125 -213.828125 "/></g></g></g><g fill="#000000" fill-opacity="1"><g transform="translate(783.3738, 337.731498)"><g><path d="M 112.046875 -218.0625 C 125.335938 -218.0625 136.257812 -216.097656 144.8125 -212.171875 C 153.375 -208.242188 160.976562 -203.660156 167.625 -198.421875 C 171.644531 -195.398438 174.710938 -195.046875 176.828125 -197.359375 C 178.941406 -199.679688 180.398438 -205.171875 181.203125 -213.828125 L 188.15625 -213.828125 C 187.75 -206.378906 187.445312 -197.316406 187.25 -186.640625 C 187.050781 -175.972656 186.953125 -161.878906 186.953125 -144.359375 L 180 -144.359375 C 178.59375 -153.015625 177.285156 -159.910156 176.078125 -165.046875 C 174.867188 -170.179688 173.40625 -174.5625 171.6875 -178.1875 C 169.976562 -181.8125 167.71875 -185.4375 164.90625 -189.0625 C 158.65625 -197.3125 150.800781 -203.300781 141.34375 -207.03125 C 131.882812 -210.757812 121.914062 -212.625 111.4375 -212.625 C 101.570312 -212.625 92.660156 -210.15625 84.703125 -205.21875 C 76.753906 -200.28125 69.910156 -193.179688 64.171875 -183.921875 C 58.441406 -174.660156 54.015625 -163.484375 50.890625 -150.390625 C 47.765625 -137.304688 46.203125 -122.613281 46.203125 -106.3125 C 46.203125 -89.394531 47.914062 -74.441406 51.34375 -61.453125 C 54.769531 -48.472656 59.550781 -37.550781 65.6875 -28.6875 C 71.832031 -19.832031 79.082031 -13.140625 87.4375 -8.609375 C 95.789062 -4.078125 104.800781 -1.8125 114.46875 -1.8125 C 123.519531 -1.8125 132.976562 -3.625 142.84375 -7.25 C 152.71875 -10.875 160.472656 -16.710938 166.109375 -24.765625 C 170.535156 -30.609375 173.601562 -36.953125 175.3125 -43.796875 C 177.03125 -50.640625 178.59375 -60.203125 180 -72.484375 L 186.953125 -72.484375 C 186.953125 -54.160156 187.050781 -39.410156 187.25 -28.234375 C 187.445312 -17.066406 187.75 -7.65625 188.15625 0 L 181.203125 0 C 180.398438 -8.65625 179.039062 -14.085938 177.125 -16.296875 C 175.21875 -18.515625 172.050781 -18.21875 167.625 -15.40625 C 160.164062 -10.164062 152.257812 -5.582031 143.90625 -1.65625 C 135.550781 2.269531 124.832031 4.234375 111.75 4.234375 C 92.613281 4.234375 75.847656 -0.09375 61.453125 -8.75 C 47.054688 -17.414062 35.878906 -29.898438 27.921875 -46.203125 C 19.972656 -62.515625 16 -82.144531 16 -105.09375 C 16 -127.644531 20.125 -147.378906 28.375 -164.296875 C 36.632812 -181.210938 47.960938 -194.398438 62.359375 -203.859375 C 76.753906 -213.328125 93.316406 -218.0625 112.046875 -218.0625 Z M 112.046875 -218.0625 "/></g></g></g><g fill="#000000" fill-opacity="1"><g transform="translate(991.157493, 337.731498)"><g><path d="M 163.390625 -213.828125 C 162.585938 -206.773438 162.035156 -199.925781 161.734375 -193.28125 C 161.429688 -186.644531 161.28125 -181.613281 161.28125 -178.1875 C 161.28125 -174.5625 161.378906 -171.085938 161.578125 -167.765625 C 161.773438 -164.441406 161.976562 -161.675781 162.1875 -159.46875 L 155.234375 -159.46875 C 154.023438 -171.34375 152.3125 -180.753906 150.09375 -187.703125 C 147.882812 -194.648438 144.109375 -199.582031 138.765625 -202.5 C 133.429688 -205.414062 125.429688 -206.875 114.765625 -206.875 L 89.703125 -206.875 C 82.859375 -206.875 77.671875 -206.320312 74.140625 -205.21875 C 70.617188 -204.113281 68.253906 -201.796875 67.046875 -198.265625 C 65.835938 -194.742188 65.234375 -189.257812 65.234375 -181.8125 L 65.234375 -32.015625 C 65.234375 -24.765625 65.835938 -19.328125 67.046875 -15.703125 C 68.253906 -12.078125 70.617188 -9.710938 74.140625 -8.609375 C 77.671875 -7.503906 82.859375 -6.953125 89.703125 -6.953125 L 111.75 -6.953125 C 124.425781 -6.953125 134.035156 -8.660156 140.578125 -12.078125 C 147.128906 -15.503906 151.863281 -21.09375 154.78125 -28.84375 C 157.695312 -36.59375 159.863281 -47.113281 161.28125 -60.40625 L 168.21875 -60.40625 C 167.613281 -54.96875 167.3125 -47.71875 167.3125 -38.65625 C 167.3125 -34.832031 167.460938 -29.347656 167.765625 -22.203125 C 168.066406 -15.054688 168.625 -7.65625 169.4375 0 C 159.164062 -0.40625 147.585938 -0.65625 134.703125 -0.75 C 121.816406 -0.851562 110.335938 -0.90625 100.265625 -0.90625 C 95.835938 -0.90625 90.148438 -0.90625 83.203125 -0.90625 C 76.253906 -0.90625 68.753906 -0.851562 60.703125 -0.75 C 52.648438 -0.65625 44.492188 -0.554688 36.234375 -0.453125 C 27.984375 -0.347656 20.132812 -0.195312 12.6875 0 L 12.6875 -6.046875 C 19.53125 -6.441406 24.710938 -7.242188 28.234375 -8.453125 C 31.765625 -9.660156 34.128906 -12.078125 35.328125 -15.703125 C 36.535156 -19.328125 37.140625 -24.765625 37.140625 -32.015625 L 37.140625 -181.8125 C 37.140625 -189.257812 36.535156 -194.742188 35.328125 -198.265625 C 34.128906 -201.796875 31.765625 -204.210938 28.234375 -205.515625 C 24.710938 -206.828125 19.53125 -207.582031 12.6875 -207.78125 L 12.6875 -213.828125 C 20.132812 -213.628906 27.984375 -213.476562 36.234375 -213.375 C 44.492188 -213.269531 52.648438 -213.164062 60.703125 -213.0625 C 68.753906 -212.96875 76.253906 -212.921875 83.203125 -212.921875 C 90.148438 -212.921875 95.835938 -212.921875 100.265625 -212.921875 C 109.523438 -212.921875 120.046875 -212.96875 131.828125 -213.0625 C 143.609375 -213.164062 154.128906 -213.421875 163.390625 -213.828125 Z M 111.4375 -110.53125 C 111.4375 -110.53125 111.4375 -109.523438 111.4375 -107.515625 C 111.4375 -105.503906 111.4375 -104.5 111.4375 -104.5 L 56.171875 -104.5 C 56.171875 -104.5 56.171875 -105.503906 56.171875 -107.515625 C 56.171875 -109.523438 56.171875 -110.53125 56.171875 -110.53125 Z M 120.203125 -150.40625 C 119.398438 -138.925781 119.046875 -130.164062 119.140625 -124.125 C 119.242188 -118.082031 119.296875 -112.546875 119.296875 -107.515625 C 119.296875 -102.484375 119.394531 -96.945312 119.59375 -90.90625 C 119.800781 -84.863281 120.304688 -76.101562 121.109375 -64.625 L 114.15625 -64.625 C 113.351562 -71.070312 112.394531 -77.363281 111.28125 -83.5 C 110.175781 -89.644531 107.757812 -94.679688 104.03125 -98.609375 C 100.3125 -102.535156 94.023438 -104.5 85.171875 -104.5 L 85.171875 -110.53125 C 91.816406 -110.53125 96.898438 -111.890625 100.421875 -114.609375 C 103.941406 -117.328125 106.503906 -120.800781 108.109375 -125.03125 C 109.722656 -129.257812 110.832031 -133.640625 111.4375 -138.171875 C 112.039062 -142.703125 112.644531 -146.78125 113.25 -150.40625 Z M 120.203125 -150.40625 "/></g></g></g><g fill="#000000" fill-opacity="1"><g transform="translate(680.992004, 631.425499)"><g><path d="M 97.546875 -215.34375 L 171.25 -25.375 C 174.257812 -17.71875 177.675781 -12.628906 181.5 -10.109375 C 185.332031 -7.597656 188.859375 -6.242188 192.078125 -6.046875 L 192.078125 0 C 188.054688 -0.40625 183.125 -0.65625 177.28125 -0.75 C 171.445312 -0.851562 165.609375 -0.90625 159.765625 -0.90625 C 151.910156 -0.90625 144.5625 -0.851562 137.71875 -0.75 C 130.875 -0.65625 125.335938 -0.40625 121.109375 0 L 121.109375 -6.046875 C 131.378906 -6.441406 137.921875 -8.195312 140.734375 -11.3125 C 143.554688 -14.4375 142.953125 -21.132812 138.921875 -31.40625 L 82.75 -181.515625 L 87.578125 -185.4375 L 35.03125 -48.921875 C 31.8125 -40.867188 29.898438 -34.070312 29.296875 -28.53125 C 28.691406 -23 29.242188 -18.625 30.953125 -15.40625 C 32.671875 -12.1875 35.59375 -9.867188 39.71875 -8.453125 C 43.84375 -7.046875 49.023438 -6.242188 55.265625 -6.046875 L 55.265625 0 C 49.628906 -0.40625 43.738281 -0.65625 37.59375 -0.75 C 31.457031 -0.851562 25.769531 -0.90625 20.53125 -0.90625 C 15.5 -0.90625 11.222656 -0.851562 7.703125 -0.75 C 4.179688 -0.65625 0.910156 -0.40625 -2.109375 0 L -2.109375 -6.046875 C 1.910156 -7.046875 6.035156 -9.40625 10.265625 -13.125 C 14.492188 -16.851562 18.320312 -23.25 21.75 -32.3125 L 92.71875 -215.34375 C 93.519531 -215.34375 94.320312 -215.34375 95.125 -215.34375 C 95.9375 -215.34375 96.742188 -215.34375 97.546875 -215.34375 Z M 134.390625 -86.984375 L 134.390625 -80.9375 L 44.390625 -80.9375 L 47.421875 -86.984375 Z M 134.390625 -86.984375 "/></g></g></g><g fill="#000000" fill-opacity="1"><g transform="translate(871.259059, 631.425499)"><g><path d="M 112.046875 -218.0625 C 125.335938 -218.0625 136.257812 -216.097656 144.8125 -212.171875 C 153.375 -208.242188 160.976562 -203.660156 167.625 -198.421875 C 171.644531 -195.398438 174.710938 -195.046875 176.828125 -197.359375 C 178.941406 -199.679688 180.398438 -205.171875 181.203125 -213.828125 L 188.15625 -213.828125 C 187.75 -206.378906 187.445312 -197.316406 187.25 -186.640625 C 187.050781 -175.972656 186.953125 -161.878906 186.953125 -144.359375 L 180 -144.359375 C 178.59375 -153.015625 177.285156 -159.910156 176.078125 -165.046875 C 174.867188 -170.179688 173.40625 -174.5625 171.6875 -178.1875 C 169.976562 -181.8125 167.71875 -185.4375 164.90625 -189.0625 C 158.65625 -197.3125 150.800781 -203.300781 141.34375 -207.03125 C 131.882812 -210.757812 121.914062 -212.625 111.4375 -212.625 C 101.570312 -212.625 92.660156 -210.15625 84.703125 -205.21875 C 76.753906 -200.28125 69.910156 -193.179688 64.171875 -183.921875 C 58.441406 -174.660156 54.015625 -163.484375 50.890625 -150.390625 C 47.765625 -137.304688 46.203125 -122.613281 46.203125 -106.3125 C 46.203125 -89.394531 47.914062 -74.441406 51.34375 -61.453125 C 54.769531 -48.472656 59.550781 -37.550781 65.6875 -28.6875 C 71.832031 -19.832031 79.082031 -13.140625 87.4375 -8.609375 C 95.789062 -4.078125 104.800781 -1.8125 114.46875 -1.8125 C 123.519531 -1.8125 132.976562 -3.625 142.84375 -7.25 C 152.71875 -10.875 160.472656 -16.710938 166.109375 -24.765625 C 170.535156 -30.609375 173.601562 -36.953125 175.3125 -43.796875 C 177.03125 -50.640625 178.59375 -60.203125 180 -72.484375 L 186.953125 -72.484375 C 186.953125 -54.160156 187.050781 -39.410156 187.25 -28.234375 C 187.445312 -17.066406 187.75 -7.65625 188.15625 0 L 181.203125 0 C 180.398438 -8.65625 179.039062 -14.085938 177.125 -16.296875 C 175.21875 -18.515625 172.050781 -18.21875 167.625 -15.40625 C 160.164062 -10.164062 152.257812 -5.582031 143.90625 -1.65625 C 135.550781 2.269531 124.832031 4.234375 111.75 4.234375 C 92.613281 4.234375 75.847656 -0.09375 61.453125 -8.75 C 47.054688 -17.414062 35.878906 -29.898438 27.921875 -46.203125 C 19.972656 -62.515625 16 -82.144531 16 -105.09375 C 16 -127.644531 20.125 -147.378906 28.375 -164.296875 C 36.632812 -181.210938 47.960938 -194.398438 62.359375 -203.859375 C 76.753906 -213.328125 93.316406 -218.0625 112.046875 -218.0625 Z M 112.046875 -218.0625 "/></g></g></g><g fill="#000000" fill-opacity="1"><g transform="translate(1079.042752, 631.425499)"><g><path d="M 112.046875 -218.0625 C 125.335938 -218.0625 136.257812 -216.097656 144.8125 -212.171875 C 153.375 -208.242188 160.976562 -203.660156 167.625 -198.421875 C 171.644531 -195.398438 174.710938 -195.046875 176.828125 -197.359375 C 178.941406 -199.679688 180.398438 -205.171875 181.203125 -213.828125 L 188.15625 -213.828125 C 187.75 -206.378906 187.445312 -197.316406 187.25 -186.640625 C 187.050781 -175.972656 186.953125 -161.878906 186.953125 -144.359375 L 180 -144.359375 C 178.59375 -153.015625 177.285156 -159.910156 176.078125 -165.046875 C 174.867188 -170.179688 173.40625 -174.5625 171.6875 -178.1875 C 169.976562 -181.8125 167.71875 -185.4375 164.90625 -189.0625 C 158.65625 -197.3125 150.800781 -203.300781 141.34375 -207.03125 C 131.882812 -210.757812 121.914062 -212.625 111.4375 -212.625 C 101.570312 -212.625 92.660156 -210.15625 84.703125 -205.21875 C 76.753906 -200.28125 69.910156 -193.179688 64.171875 -183.921875 C 58.441406 -174.660156 54.015625 -163.484375 50.890625 -150.390625 C 47.765625 -137.304688 46.203125 -122.613281 46.203125 -106.3125 C 46.203125 -89.394531 47.914062 -74.441406 51.34375 -61.453125 C 54.769531 -48.472656 59.550781 -37.550781 65.6875 -28.6875 C 71.832031 -19.832031 79.082031 -13.140625 87.4375 -8.609375 C 95.789062 -4.078125 104.800781 -1.8125 114.46875 -1.8125 C 123.519531 -1.8125 132.976562 -3.625 142.84375 -7.25 C 152.71875 -10.875 160.472656 -16.710938 166.109375 -24.765625 C 170.535156 -30.609375 173.601562 -36.953125 175.3125 -43.796875 C 177.03125 -50.640625 178.59375 -60.203125 180 -72.484375 L 186.953125 -72.484375 C 186.953125 -54.160156 187.050781 -39.410156 187.25 -28.234375 C 187.445312 -17.066406 187.75 -7.65625 188.15625 0 L 181.203125 0 C 180.398438 -8.65625 179.039062 -14.085938 177.125 -16.296875 C 175.21875 -18.515625 172.050781 -18.21875 167.625 -15.40625 C 160.164062 -10.164062 152.257812 -5.582031 143.90625 -1.65625 C 135.550781 2.269531 124.832031 4.234375 111.75 4.234375 C 92.613281 4.234375 75.847656 -0.09375 61.453125 -8.75 C 47.054688 -17.414062 35.878906 -29.898438 27.921875 -46.203125 C 19.972656 -62.515625 16 -82.144531 16 -105.09375 C 16 -127.644531 20.125 -147.378906 28.375 -164.296875 C 36.632812 -181.210938 47.960938 -194.398438 62.359375 -203.859375 C 76.753906 -213.328125 93.316406 -218.0625 112.046875 -218.0625 Z M 112.046875 -218.0625 "/></g></g></g><g fill="#000000" fill-opacity="1"><g transform="translate(1286.831484, 631.425499)"><g/></g></g><g fill="#000000" fill-opacity="1"><g transform="translate(716.391694, 737.285888)"><g><path d="M 15.15625 -36.140625 L 15.15625 -35.125 C 14 -35.082031 13.125 -34.953125 12.53125 -34.734375 C 11.9375 -34.515625 11.535156 -34.109375 11.328125 -33.515625 C 11.128906 -32.921875 11.03125 -31.992188 11.03125 -30.734375 L 11.03125 -5.40625 C 11.03125 -4.1875 11.128906 -3.269531 11.328125 -2.65625 C 11.535156 -2.039062 11.9375 -1.628906 12.53125 -1.421875 C 13.125 -1.222656 14 -1.085938 15.15625 -1.015625 L 15.15625 0 C 14.375 -0.0703125 13.394531 -0.113281 12.21875 -0.125 C 11.050781 -0.144531 9.867188 -0.15625 8.671875 -0.15625 C 7.347656 -0.15625 6.109375 -0.144531 4.953125 -0.125 C 3.796875 -0.113281 2.859375 -0.0703125 2.140625 0 L 2.140625 -1.015625 C 3.296875 -1.085938 4.171875 -1.222656 4.765625 -1.421875 C 5.367188 -1.628906 5.769531 -2.039062 5.96875 -2.65625 C 6.175781 -3.269531 6.28125 -4.1875 6.28125 -5.40625 L 6.28125 -30.734375 C 6.28125 -31.992188 6.175781 -32.921875 5.96875 -33.515625 C 5.769531 -34.109375 5.367188 -34.515625 4.765625 -34.734375 C 4.171875 -34.953125 3.296875 -35.082031 2.140625 -35.125 L 2.140625 -36.140625 C 2.859375 -36.109375 3.796875 -36.070312 4.953125 -36.03125 C 6.109375 -36 7.347656 -35.984375 8.671875 -35.984375 C 9.867188 -35.984375 11.050781 -36 12.21875 -36.03125 C 13.394531 -36.070312 14.375 -36.109375 15.15625 -36.140625 Z M 15.15625 -36.140625 "/></g></g></g><g fill="#000000" fill-opacity="1"><g transform="translate(733.696229, 737.285888)"><g><path d="M 18.625 -27 C 19.925781 -27 21.007812 -26.828125 21.875 -26.484375 C 22.738281 -26.148438 23.460938 -25.675781 24.046875 -25.0625 C 24.691406 -24.382812 25.148438 -23.535156 25.421875 -22.515625 C 25.691406 -21.492188 25.828125 -20.113281 25.828125 -18.375 L 25.828125 -4.75 C 25.828125 -3.320312 26.125 -2.351562 26.71875 -1.84375 C 27.3125 -1.332031 28.304688 -1.078125 29.703125 -1.078125 L 29.703125 0 C 29.128906 -0.03125 28.242188 -0.0703125 27.046875 -0.125 C 25.859375 -0.175781 24.703125 -0.203125 23.578125 -0.203125 C 22.460938 -0.203125 21.367188 -0.175781 20.296875 -0.125 C 19.222656 -0.0703125 18.410156 -0.03125 17.859375 0 L 17.859375 -1.078125 C 19.085938 -1.078125 19.957031 -1.332031 20.46875 -1.84375 C 20.976562 -2.351562 21.234375 -3.320312 21.234375 -4.75 L 21.234375 -19.5 C 21.234375 -20.550781 21.144531 -21.519531 20.96875 -22.40625 C 20.800781 -23.289062 20.421875 -24.003906 19.828125 -24.546875 C 19.234375 -25.097656 18.320312 -25.375 17.09375 -25.375 C 15.664062 -25.375 14.414062 -24.960938 13.34375 -24.140625 C 12.269531 -23.328125 11.4375 -22.210938 10.84375 -20.796875 C 10.25 -19.390625 9.953125 -17.816406 9.953125 -16.078125 L 9.953125 -4.75 C 9.953125 -3.320312 10.207031 -2.351562 10.71875 -1.84375 C 11.226562 -1.332031 12.097656 -1.078125 13.328125 -1.078125 L 13.328125 0 C 12.773438 -0.03125 11.960938 -0.0703125 10.890625 -0.125 C 9.828125 -0.175781 8.734375 -0.203125 7.609375 -0.203125 C 6.484375 -0.203125 5.320312 -0.175781 4.125 -0.125 C 2.9375 -0.0703125 2.054688 -0.03125 1.484375 0 L 1.484375 -1.078125 C 2.878906 -1.078125 3.875 -1.332031 4.46875 -1.84375 C 5.0625 -2.351562 5.359375 -3.320312 5.359375 -4.75 L 5.359375 -20.71875 C 5.359375 -22.25 5.082031 -23.378906 4.53125 -24.109375 C 3.988281 -24.847656 2.972656 -25.21875 1.484375 -25.21875 L 1.484375 -26.296875 C 2.566406 -26.191406 3.617188 -26.140625 4.640625 -26.140625 C 5.628906 -26.140625 6.570312 -26.195312 7.46875 -26.3125 C 8.375 -26.4375 9.203125 -26.613281 9.953125 -26.84375 L 9.953125 -20.828125 C 10.835938 -23.140625 12.070312 -24.742188 13.65625 -25.640625 C 15.238281 -26.546875 16.894531 -27 18.625 -27 Z M 18.625 -27 "/></g></g></g><g fill="#000000" fill-opacity="1"><g transform="translate(764.17058, 737.285888)"><g/></g></g><g fill="#000000" fill-opacity="1"><g transform="translate(776.880989, 737.285888)"><g><path d="M 14.234375 -27 C 15.328125 -27 16.382812 -26.863281 17.40625 -26.59375 C 18.425781 -26.320312 19.34375 -25.914062 20.15625 -25.375 C 20.945312 -24.863281 21.546875 -24.273438 21.953125 -23.609375 C 22.359375 -22.941406 22.5625 -22.21875 22.5625 -21.4375 C 22.5625 -20.519531 22.304688 -19.8125 21.796875 -19.3125 C 21.285156 -18.820312 20.640625 -18.578125 19.859375 -18.578125 C 19.109375 -18.578125 18.453125 -18.796875 17.890625 -19.234375 C 17.328125 -19.679688 17.046875 -20.316406 17.046875 -21.140625 C 17.046875 -21.921875 17.257812 -22.546875 17.6875 -23.015625 C 18.113281 -23.492188 18.613281 -23.800781 19.1875 -23.9375 C 18.851562 -24.550781 18.25 -25.0625 17.375 -25.46875 C 16.507812 -25.875 15.582031 -26.078125 14.59375 -26.078125 C 13.75 -26.078125 12.898438 -25.875 12.046875 -25.46875 C 11.191406 -25.0625 10.40625 -24.390625 9.6875 -23.453125 C 8.976562 -22.515625 8.398438 -21.238281 7.953125 -19.625 C 7.515625 -18.007812 7.296875 -15.992188 7.296875 -13.578125 C 7.296875 -10.585938 7.632812 -8.207031 8.3125 -6.4375 C 9 -4.664062 9.894531 -3.394531 11 -2.625 C 12.101562 -1.863281 13.320312 -1.484375 14.65625 -1.484375 C 15.539062 -1.484375 16.441406 -1.648438 17.359375 -1.984375 C 18.273438 -2.328125 19.140625 -2.878906 19.953125 -3.640625 C 20.773438 -4.410156 21.472656 -5.441406 22.046875 -6.734375 L 23.015625 -6.375 C 22.679688 -5.289062 22.117188 -4.191406 21.328125 -3.078125 C 20.546875 -1.972656 19.523438 -1.0625 18.265625 -0.34375 C 17.015625 0.363281 15.46875 0.71875 13.625 0.71875 C 11.519531 0.71875 9.613281 0.175781 7.90625 -0.90625 C 6.207031 -2 4.851562 -3.554688 3.84375 -5.578125 C 2.84375 -7.609375 2.34375 -10.019531 2.34375 -12.8125 C 2.34375 -15.601562 2.84375 -18.0625 3.84375 -20.1875 C 4.851562 -22.3125 6.257812 -23.976562 8.0625 -25.1875 C 9.863281 -26.394531 11.921875 -27 14.234375 -27 Z M 14.234375 -27 "/></g></g></g><g fill="#000000" fill-opacity="1"><g transform="translate(801.689252, 737.285888)"><g><path d="M 9.5 -39.96875 L 9.5 -20.875 C 10.382812 -23.1875 11.613281 -24.785156 13.1875 -25.671875 C 14.769531 -26.554688 16.429688 -27 18.171875 -27 C 19.460938 -27 20.539062 -26.828125 21.40625 -26.484375 C 22.28125 -26.148438 23.003906 -25.675781 23.578125 -25.0625 C 24.222656 -24.382812 24.679688 -23.535156 24.953125 -22.515625 C 25.234375 -21.492188 25.375 -20.113281 25.375 -18.375 L 25.375 -4.75 C 25.375 -3.320312 25.671875 -2.351562 26.265625 -1.84375 C 26.859375 -1.332031 27.851562 -1.078125 29.25 -1.078125 L 29.25 0 C 28.664062 -0.03125 27.78125 -0.0703125 26.59375 -0.125 C 25.40625 -0.175781 24.25 -0.203125 23.125 -0.203125 C 22 -0.203125 20.898438 -0.175781 19.828125 -0.125 C 18.753906 -0.0703125 17.945312 -0.03125 17.40625 0 L 17.40625 -1.078125 C 18.632812 -1.078125 19.503906 -1.332031 20.015625 -1.84375 C 20.523438 -2.351562 20.78125 -3.320312 20.78125 -4.75 L 20.78125 -19.5 C 20.78125 -20.550781 20.691406 -21.519531 20.515625 -22.40625 C 20.347656 -23.289062 19.96875 -24.003906 19.375 -24.546875 C 18.78125 -25.097656 17.867188 -25.375 16.640625 -25.375 C 15.242188 -25.375 14.007812 -24.976562 12.9375 -24.1875 C 11.863281 -23.40625 11.019531 -22.316406 10.40625 -20.921875 C 9.800781 -19.535156 9.5 -17.9375 9.5 -16.125 L 9.5 -4.75 C 9.5 -3.320312 9.753906 -2.351562 10.265625 -1.84375 C 10.773438 -1.332031 11.640625 -1.078125 12.859375 -1.078125 L 12.859375 0 C 12.316406 -0.03125 11.507812 -0.0703125 10.4375 -0.125 C 9.363281 -0.175781 8.265625 -0.203125 7.140625 -0.203125 C 6.023438 -0.203125 4.867188 -0.175781 3.671875 -0.125 C 2.484375 -0.0703125 1.597656 -0.03125 1.015625 0 L 1.015625 -1.078125 C 2.410156 -1.078125 3.40625 -1.332031 4 -1.84375 C 4.601562 -2.351562 4.90625 -3.320312 4.90625 -4.75 L 4.90625 -33.84375 C 4.90625 -35.375 4.628906 -36.503906 4.078125 -37.234375 C 3.535156 -37.972656 2.515625 -38.34375 1.015625 -38.34375 L 1.015625 -39.40625 C 2.109375 -39.300781 3.164062 -39.25 4.1875 -39.25 C 5.175781 -39.25 6.117188 -39.304688 7.015625 -39.421875 C 7.921875 -39.546875 8.75 -39.726562 9.5 -39.96875 Z M 9.5 -39.96875 "/></g></g></g><g fill="#000000" fill-opacity="1"><g transform="translate(831.704195, 737.285888)"><g><path d="M 7.296875 -39.046875 C 8.179688 -39.046875 8.945312 -38.722656 9.59375 -38.078125 C 10.25 -37.429688 10.578125 -36.664062 10.578125 -35.78125 C 10.578125 -34.894531 10.25 -34.128906 9.59375 -33.484375 C 8.945312 -32.835938 8.179688 -32.515625 7.296875 -32.515625 C 6.410156 -32.515625 5.644531 -32.835938 5 -33.484375 C 4.351562 -34.128906 4.03125 -34.894531 4.03125 -35.78125 C 4.03125 -36.664062 4.351562 -37.429688 5 -38.078125 C 5.644531 -38.722656 6.410156 -39.046875 7.296875 -39.046875 Z M 9.953125 -26.84375 L 9.953125 -4.75 C 9.953125 -3.320312 10.25 -2.351562 10.84375 -1.84375 C 11.4375 -1.332031 12.429688 -1.078125 13.828125 -1.078125 L 13.828125 0 C 13.253906 -0.03125 12.378906 -0.0703125 11.203125 -0.125 C 10.023438 -0.175781 8.84375 -0.203125 7.65625 -0.203125 C 6.5 -0.203125 5.320312 -0.175781 4.125 -0.125 C 2.9375 -0.0703125 2.054688 -0.03125 1.484375 0 L 1.484375 -1.078125 C 2.878906 -1.078125 3.875 -1.332031 4.46875 -1.84375 C 5.0625 -2.351562 5.359375 -3.320312 5.359375 -4.75 L 5.359375 -20.71875 C 5.359375 -22.25 5.082031 -23.378906 4.53125 -24.109375 C 3.988281 -24.847656 2.972656 -25.21875 1.484375 -25.21875 L 1.484375 -26.296875 C 2.566406 -26.191406 3.617188 -26.140625 4.640625 -26.140625 C 5.628906 -26.140625 6.570312 -26.195312 7.46875 -26.3125 C 8.375 -26.4375 9.203125 -26.613281 9.953125 -26.84375 Z M 9.953125 -26.84375 "/></g></g></g><g fill="#000000" fill-opacity="1"><g transform="translate(846.660623, 737.285888)"><g><path d="M 18.625 -27 C 19.925781 -27 21.007812 -26.828125 21.875 -26.484375 C 22.738281 -26.148438 23.460938 -25.675781 24.046875 -25.0625 C 24.691406 -24.382812 25.148438 -23.535156 25.421875 -22.515625 C 25.691406 -21.492188 25.828125 -20.113281 25.828125 -18.375 L 25.828125 -4.75 C 25.828125 -3.320312 26.125 -2.351562 26.71875 -1.84375 C 27.3125 -1.332031 28.304688 -1.078125 29.703125 -1.078125 L 29.703125 0 C 29.128906 -0.03125 28.242188 -0.0703125 27.046875 -0.125 C 25.859375 -0.175781 24.703125 -0.203125 23.578125 -0.203125 C 22.460938 -0.203125 21.367188 -0.175781 20.296875 -0.125 C 19.222656 -0.0703125 18.410156 -0.03125 17.859375 0 L 17.859375 -1.078125 C 19.085938 -1.078125 19.957031 -1.332031 20.46875 -1.84375 C 20.976562 -2.351562 21.234375 -3.320312 21.234375 -4.75 L 21.234375 -19.5 C 21.234375 -20.550781 21.144531 -21.519531 20.96875 -22.40625 C 20.800781 -23.289062 20.421875 -24.003906 19.828125 -24.546875 C 19.234375 -25.097656 18.320312 -25.375 17.09375 -25.375 C 15.664062 -25.375 14.414062 -24.960938 13.34375 -24.140625 C 12.269531 -23.328125 11.4375 -22.210938 10.84375 -20.796875 C 10.25 -19.390625 9.953125 -17.816406 9.953125 -16.078125 L 9.953125 -4.75 C 9.953125 -3.320312 10.207031 -2.351562 10.71875 -1.84375 C 11.226562 -1.332031 12.097656 -1.078125 13.328125 -1.078125 L 13.328125 0 C 12.773438 -0.03125 11.960938 -0.0703125 10.890625 -0.125 C 9.828125 -0.175781 8.734375 -0.203125 7.609375 -0.203125 C 6.484375 -0.203125 5.320312 -0.175781 4.125 -0.125 C 2.9375 -0.0703125 2.054688 -0.03125 1.484375 0 L 1.484375 -1.078125 C 2.878906 -1.078125 3.875 -1.332031 4.46875 -1.84375 C 5.0625 -2.351562 5.359375 -3.320312 5.359375 -4.75 L 5.359375 -20.71875 C 5.359375 -22.25 5.082031 -23.378906 4.53125 -24.109375 C 3.988281 -24.847656 2.972656 -25.21875 1.484375 -25.21875 L 1.484375 -26.296875 C 2.566406 -26.191406 3.617188 -26.140625 4.640625 -26.140625 C 5.628906 -26.140625 6.570312 -26.195312 7.46875 -26.3125 C 8.375 -26.4375 9.203125 -26.613281 9.953125 -26.84375 L 9.953125 -20.828125 C 10.835938 -23.140625 12.070312 -24.742188 13.65625 -25.640625 C 15.238281 -26.546875 16.894531 -27 18.625 -27 Z M 18.625 -27 "/></g></g></g><g fill="#000000" fill-opacity="1"><g transform="translate(877.134974, 737.285888)"><g><path d="M 10.875 9.59375 C 9.070312 9.59375 7.367188 9.40625 5.765625 9.03125 C 4.171875 8.65625 2.882812 8.066406 1.90625 7.265625 C 0.9375 6.472656 0.453125 5.460938 0.453125 4.234375 C 0.453125 3.046875 0.925781 2.023438 1.875 1.171875 C 2.832031 0.316406 4.128906 -0.328125 5.765625 -0.765625 L 6.078125 0.046875 C 5.328125 0.285156 4.726562 0.757812 4.28125 1.46875 C 3.84375 2.1875 3.625 2.988281 3.625 3.875 C 3.625 5.445312 4.347656 6.648438 5.796875 7.484375 C 7.242188 8.316406 9.125 8.734375 11.4375 8.734375 C 12.96875 8.734375 14.460938 8.535156 15.921875 8.140625 C 17.390625 7.753906 18.597656 7.097656 19.546875 6.171875 C 20.503906 5.253906 20.984375 4.046875 20.984375 2.546875 C 20.984375 1.429688 20.582031 0.507812 19.78125 -0.21875 C 18.976562 -0.957031 17.40625 -1.328125 15.0625 -1.328125 L 11.28125 -1.328125 C 10.1875 -1.328125 9.128906 -1.410156 8.109375 -1.578125 C 7.085938 -1.753906 6.253906 -2.113281 5.609375 -2.65625 C 4.960938 -3.195312 4.640625 -4.03125 4.640625 -5.15625 C 4.640625 -6.3125 5.113281 -7.425781 6.0625 -8.5 C 7.019531 -9.570312 8.773438 -10.671875 11.328125 -11.796875 L 11.9375 -11.328125 C 10.78125 -10.710938 9.773438 -10.09375 8.921875 -9.46875 C 8.078125 -8.84375 7.65625 -8.101562 7.65625 -7.25 C 7.65625 -6.15625 8.472656 -5.609375 10.109375 -5.609375 L 16.484375 -5.609375 C 17.910156 -5.609375 19.226562 -5.40625 20.4375 -5 C 21.644531 -4.59375 22.625 -3.945312 23.375 -3.0625 C 24.125 -2.175781 24.5 -1.019531 24.5 0.40625 C 24.5 2.007812 23.988281 3.507812 22.96875 4.90625 C 21.945312 6.300781 20.421875 7.429688 18.390625 8.296875 C 16.367188 9.160156 13.863281 9.59375 10.875 9.59375 Z M 11.125 -10.875 C 9.457031 -10.875 7.941406 -11.15625 6.578125 -11.71875 C 5.222656 -12.28125 4.148438 -13.15625 3.359375 -14.34375 C 2.578125 -15.53125 2.1875 -17.0625 2.1875 -18.9375 C 2.1875 -20.8125 2.578125 -22.34375 3.359375 -23.53125 C 4.148438 -24.71875 5.222656 -25.59375 6.578125 -26.15625 C 7.941406 -26.71875 9.457031 -27 11.125 -27 C 12.832031 -27 14.359375 -26.71875 15.703125 -26.15625 C 17.046875 -25.59375 18.109375 -24.71875 18.890625 -23.53125 C 19.671875 -22.34375 20.0625 -20.8125 20.0625 -18.9375 C 20.0625 -17.0625 19.671875 -15.53125 18.890625 -14.34375 C 18.109375 -13.15625 17.046875 -12.28125 15.703125 -11.71875 C 14.359375 -11.15625 12.832031 -10.875 11.125 -10.875 Z M 11.125 -11.796875 C 12.414062 -11.796875 13.425781 -12.304688 14.15625 -13.328125 C 14.894531 -14.347656 15.265625 -16.21875 15.265625 -18.9375 C 15.265625 -21.65625 14.894531 -23.523438 14.15625 -24.546875 C 13.425781 -25.566406 12.414062 -26.078125 11.125 -26.078125 C 9.863281 -26.078125 8.859375 -25.566406 8.109375 -24.546875 C 7.367188 -23.523438 7 -21.65625 7 -18.9375 C 7 -16.21875 7.367188 -14.347656 8.109375 -13.328125 C 8.859375 -12.304688 9.863281 -11.796875 11.125 -11.796875 Z M 18.484375 -22.765625 L 17.5625 -23.125 C 18.039062 -24.28125 18.859375 -25.300781 20.015625 -26.1875 C 21.171875 -27.070312 22.378906 -27.515625 23.640625 -27.515625 C 24.523438 -27.515625 25.238281 -27.265625 25.78125 -26.765625 C 26.320312 -26.273438 26.59375 -25.535156 26.59375 -24.546875 C 26.59375 -23.492188 26.3125 -22.753906 25.75 -22.328125 C 25.1875 -21.898438 24.617188 -21.6875 24.046875 -21.6875 C 23.535156 -21.6875 23.054688 -21.863281 22.609375 -22.21875 C 22.171875 -22.582031 21.914062 -23.15625 21.84375 -23.9375 C 21.78125 -24.71875 22.019531 -25.722656 22.5625 -26.953125 L 23.21875 -26.796875 C 21.789062 -26.253906 20.769531 -25.6875 20.15625 -25.09375 C 19.550781 -24.5 18.992188 -23.722656 18.484375 -22.765625 Z M 18.484375 -22.765625 "/></g></g></g><g fill="#000000" fill-opacity="1"><g transform="translate(904.087179, 737.285888)"><g><path d="M 7.296875 -39.046875 C 8.179688 -39.046875 8.945312 -38.722656 9.59375 -38.078125 C 10.25 -37.429688 10.578125 -36.664062 10.578125 -35.78125 C 10.578125 -34.894531 10.25 -34.128906 9.59375 -33.484375 C 8.945312 -32.835938 8.179688 -32.515625 7.296875 -32.515625 C 6.410156 -32.515625 5.644531 -32.835938 5 -33.484375 C 4.351562 -34.128906 4.03125 -34.894531 4.03125 -35.78125 C 4.03125 -36.664062 4.351562 -37.429688 5 -38.078125 C 5.644531 -38.722656 6.410156 -39.046875 7.296875 -39.046875 Z M 9.953125 -26.84375 L 9.953125 -4.75 C 9.953125 -3.320312 10.25 -2.351562 10.84375 -1.84375 C 11.4375 -1.332031 12.429688 -1.078125 13.828125 -1.078125 L 13.828125 0 C 13.253906 -0.03125 12.378906 -0.0703125 11.203125 -0.125 C 10.023438 -0.175781 8.84375 -0.203125 7.65625 -0.203125 C 6.5 -0.203125 5.320312 -0.175781 4.125 -0.125 C 2.9375 -0.0703125 2.054688 -0.03125 1.484375 0 L 1.484375 -1.078125 C 2.878906 -1.078125 3.875 -1.332031 4.46875 -1.84375 C 5.0625 -2.351562 5.359375 -3.320312 5.359375 -4.75 L 5.359375 -20.71875 C 5.359375 -22.25 5.082031 -23.378906 4.53125 -24.109375 C 3.988281 -24.847656 2.972656 -25.21875 1.484375 -25.21875 L 1.484375 -26.296875 C 2.566406 -26.191406 3.617188 -26.140625 4.640625 -26.140625 C 5.628906 -26.140625 6.570312 -26.195312 7.46875 -26.3125 C 8.375 -26.4375 9.203125 -26.613281 9.953125 -26.84375 Z M 9.953125 -26.84375 "/></g></g></g><g fill="#000000" fill-opacity="1"><g transform="translate(919.043607, 737.285888)"><g><path d="M 10.625 -27 C 11.976562 -27 13.128906 -26.773438 14.078125 -26.328125 C 15.035156 -25.890625 15.738281 -25.484375 16.1875 -25.109375 C 17.300781 -24.191406 17.976562 -24.804688 18.21875 -26.953125 L 19.390625 -26.953125 C 19.328125 -25.992188 19.273438 -24.859375 19.234375 -23.546875 C 19.203125 -22.242188 19.1875 -20.488281 19.1875 -18.28125 L 18.015625 -18.28125 C 17.816406 -19.53125 17.46875 -20.75 16.96875 -21.9375 C 16.476562 -23.132812 15.753906 -24.113281 14.796875 -24.875 C 13.847656 -25.644531 12.609375 -26.03125 11.078125 -26.03125 C 9.890625 -26.03125 8.894531 -25.695312 8.09375 -25.03125 C 7.289062 -24.375 6.890625 -23.398438 6.890625 -22.109375 C 6.890625 -21.085938 7.195312 -20.207031 7.8125 -19.46875 C 8.425781 -18.738281 9.222656 -18.054688 10.203125 -17.421875 C 11.191406 -16.796875 12.265625 -16.109375 13.421875 -15.359375 C 14.710938 -14.546875 15.882812 -13.710938 16.9375 -12.859375 C 18 -12.015625 18.84375 -11.082031 19.46875 -10.0625 C 20.101562 -9.039062 20.421875 -7.832031 20.421875 -6.4375 C 20.421875 -4.863281 20.007812 -3.550781 19.1875 -2.5 C 18.375 -1.445312 17.3125 -0.644531 16 -0.09375 C 14.6875 0.445312 13.25 0.71875 11.6875 0.71875 C 10.9375 0.71875 10.226562 0.65625 9.5625 0.53125 C 8.90625 0.414062 8.269531 0.238281 7.65625 0 C 7.3125 -0.164062 6.960938 -0.367188 6.609375 -0.609375 C 6.253906 -0.847656 5.90625 -1.101562 5.5625 -1.375 C 5.21875 -1.644531 4.910156 -1.632812 4.640625 -1.34375 C 4.367188 -1.0625 4.164062 -0.492188 4.03125 0.359375 L 2.859375 0.359375 C 2.921875 -0.734375 2.96875 -2.0625 3 -3.625 C 3.039062 -5.1875 3.0625 -7.265625 3.0625 -9.859375 L 4.234375 -9.859375 C 4.472656 -7.953125 4.8125 -6.28125 5.25 -4.84375 C 5.695312 -3.414062 6.394531 -2.300781 7.34375 -1.5 C 8.300781 -0.707031 9.628906 -0.3125 11.328125 -0.3125 C 12.015625 -0.3125 12.707031 -0.460938 13.40625 -0.765625 C 14.101562 -1.066406 14.6875 -1.578125 15.15625 -2.296875 C 15.632812 -3.015625 15.875 -3.96875 15.875 -5.15625 C 15.875 -6.65625 15.328125 -7.878906 14.234375 -8.828125 C 13.148438 -9.785156 11.773438 -10.789062 10.109375 -11.84375 C 8.878906 -12.625 7.726562 -13.40625 6.65625 -14.1875 C 5.582031 -14.96875 4.710938 -15.851562 4.046875 -16.84375 C 3.390625 -17.832031 3.0625 -19.023438 3.0625 -20.421875 C 3.0625 -21.953125 3.410156 -23.203125 4.109375 -24.171875 C 4.804688 -25.140625 5.734375 -25.851562 6.890625 -26.3125 C 8.046875 -26.769531 9.289062 -27 10.625 -27 Z M 10.625 -27 "/></g></g></g><g fill="#000000" fill-opacity="1"><g transform="translate(941.861084, 737.285888)"><g/></g></g><g fill="#000000" fill-opacity="1"><g transform="translate(954.571492, 737.285888)"><g><path d="M 18.328125 -27 C 19.515625 -27 20.550781 -26.828125 21.4375 -26.484375 C 22.320312 -26.148438 23.054688 -25.675781 23.640625 -25.0625 C 24.285156 -24.382812 24.722656 -23.5 24.953125 -22.40625 C 25.191406 -21.320312 25.3125 -19.976562 25.3125 -18.375 L 25.3125 -4.75 C 25.3125 -3.320312 25.609375 -2.351562 26.203125 -1.84375 C 26.804688 -1.332031 27.804688 -1.078125 29.203125 -1.078125 L 29.203125 0 C 28.617188 -0.03125 27.726562 -0.0703125 26.53125 -0.125 C 25.34375 -0.175781 24.191406 -0.203125 23.078125 -0.203125 C 21.953125 -0.203125 20.851562 -0.175781 19.78125 -0.125 C 18.707031 -0.0703125 17.898438 -0.03125 17.359375 0 L 17.359375 -1.078125 C 18.578125 -1.078125 19.441406 -1.332031 19.953125 -1.84375 C 20.460938 -2.351562 20.71875 -3.320312 20.71875 -4.75 L 20.71875 -19.5 C 20.71875 -20.550781 20.648438 -21.519531 20.515625 -22.40625 C 20.378906 -23.289062 20.039062 -24.003906 19.5 -24.546875 C 18.957031 -25.097656 18.070312 -25.375 16.84375 -25.375 C 15.519531 -25.375 14.335938 -24.960938 13.296875 -24.140625 C 12.253906 -23.328125 11.4375 -22.210938 10.84375 -20.796875 C 10.25 -19.390625 9.953125 -17.816406 9.953125 -16.078125 L 9.953125 -4.75 C 9.953125 -3.320312 10.207031 -2.351562 10.71875 -1.84375 C 11.226562 -1.332031 12.097656 -1.078125 13.328125 -1.078125 L 13.328125 0 C 12.773438 -0.03125 11.960938 -0.0703125 10.890625 -0.125 C 9.828125 -0.175781 8.734375 -0.203125 7.609375 -0.203125 C 6.484375 -0.203125 5.320312 -0.175781 4.125 -0.125 C 2.9375 -0.0703125 2.054688 -0.03125 1.484375 0 L 1.484375 -1.078125 C 2.878906 -1.078125 3.875 -1.332031 4.46875 -1.84375 C 5.0625 -2.351562 5.359375 -3.320312 5.359375 -4.75 L 5.359375 -20.71875 C 5.359375 -22.25 5.082031 -23.378906 4.53125 -24.109375 C 3.988281 -24.847656 2.972656 -25.21875 1.484375 -25.21875 L 1.484375 -26.296875 C 2.566406 -26.191406 3.617188 -26.140625 4.640625 -26.140625 C 5.628906 -26.140625 6.570312 -26.195312 7.46875 -26.3125 C 8.375 -26.4375 9.203125 -26.613281 9.953125 -26.84375 L 9.953125 -20.828125 C 10.835938 -23.035156 12.046875 -24.613281 13.578125 -25.5625 C 15.109375 -26.519531 16.691406 -27 18.328125 -27 Z M 33.6875 -27 C 34.882812 -27 35.921875 -26.828125 36.796875 -26.484375 C 37.679688 -26.148438 38.414062 -25.675781 39 -25.0625 C 39.644531 -24.382812 40.085938 -23.5 40.328125 -22.40625 C 40.566406 -21.320312 40.6875 -19.976562 40.6875 -18.375 L 40.6875 -4.75 C 40.6875 -3.320312 40.984375 -2.351562 41.578125 -1.84375 C 42.171875 -1.332031 43.164062 -1.078125 44.5625 -1.078125 L 44.5625 0 C 43.988281 -0.03125 43.101562 -0.0703125 41.90625 -0.125 C 40.71875 -0.175781 39.5625 -0.203125 38.4375 -0.203125 C 37.3125 -0.203125 36.210938 -0.175781 35.140625 -0.125 C 34.066406 -0.0703125 33.257812 -0.03125 32.71875 0 L 32.71875 -1.078125 C 33.945312 -1.078125 34.816406 -1.332031 35.328125 -1.84375 C 35.835938 -2.351562 36.09375 -3.320312 36.09375 -4.75 L 36.09375 -19.5 C 36.09375 -20.550781 36.023438 -21.519531 35.890625 -22.40625 C 35.753906 -23.289062 35.410156 -24.003906 34.859375 -24.546875 C 34.316406 -25.097656 33.429688 -25.375 32.203125 -25.375 C 30.878906 -25.375 29.695312 -24.960938 28.65625 -24.140625 C 27.625 -23.328125 26.804688 -22.222656 26.203125 -20.828125 C 25.609375 -19.429688 25.3125 -17.863281 25.3125 -16.125 L 25.171875 -20.875 C 26.085938 -23.226562 27.328125 -24.835938 28.890625 -25.703125 C 30.453125 -26.566406 32.050781 -27 33.6875 -27 Z M 33.6875 -27 "/></g></g></g><g fill="#000000" fill-opacity="1"><g transform="translate(999.900174, 737.285888)"><g><path d="M 13.890625 -27 C 16.878906 -27 19.21875 -26.085938 20.90625 -24.265625 C 22.59375 -22.453125 23.4375 -19.625 23.4375 -15.78125 L 5.40625 -15.78125 L 5.359375 -16.75 L 18.53125 -16.75 C 18.59375 -18.414062 18.453125 -19.953125 18.109375 -21.359375 C 17.773438 -22.773438 17.242188 -23.90625 16.515625 -24.75 C 15.785156 -25.601562 14.84375 -26.03125 13.6875 -26.03125 C 12.113281 -26.03125 10.722656 -25.25 9.515625 -23.6875 C 8.304688 -22.125 7.582031 -19.640625 7.34375 -16.234375 L 7.5 -16.03125 C 7.4375 -15.519531 7.382812 -14.957031 7.34375 -14.34375 C 7.3125 -13.726562 7.296875 -13.113281 7.296875 -12.5 C 7.296875 -10.1875 7.671875 -8.195312 8.421875 -6.53125 C 9.171875 -4.863281 10.148438 -3.59375 11.359375 -2.71875 C 12.566406 -1.851562 13.816406 -1.421875 15.109375 -1.421875 C 16.128906 -1.421875 17.097656 -1.582031 18.015625 -1.90625 C 18.929688 -2.238281 19.78125 -2.773438 20.5625 -3.515625 C 21.351562 -4.265625 22.035156 -5.269531 22.609375 -6.53125 L 23.640625 -6.125 C 23.265625 -5 22.648438 -3.910156 21.796875 -2.859375 C 20.941406 -1.804688 19.867188 -0.945312 18.578125 -0.28125 C 17.285156 0.382812 15.789062 0.71875 14.09375 0.71875 C 11.632812 0.71875 9.53125 0.15625 7.78125 -0.96875 C 6.03125 -2.09375 4.6875 -3.648438 3.75 -5.640625 C 2.8125 -7.628906 2.34375 -9.914062 2.34375 -12.5 C 2.34375 -15.5 2.816406 -18.078125 3.765625 -20.234375 C 4.722656 -22.398438 6.066406 -24.066406 7.796875 -25.234375 C 9.535156 -26.410156 11.566406 -27 13.890625 -27 Z M 13.890625 -27 "/></g></g></g><g fill="#000000" fill-opacity="1"><g transform="translate(1025.72936, 737.285888)"><g><path d="M 18.625 -27 C 19.925781 -27 21.007812 -26.828125 21.875 -26.484375 C 22.738281 -26.148438 23.460938 -25.675781 24.046875 -25.0625 C 24.691406 -24.382812 25.148438 -23.535156 25.421875 -22.515625 C 25.691406 -21.492188 25.828125 -20.113281 25.828125 -18.375 L 25.828125 -4.75 C 25.828125 -3.320312 26.125 -2.351562 26.71875 -1.84375 C 27.3125 -1.332031 28.304688 -1.078125 29.703125 -1.078125 L 29.703125 0 C 29.128906 -0.03125 28.242188 -0.0703125 27.046875 -0.125 C 25.859375 -0.175781 24.703125 -0.203125 23.578125 -0.203125 C 22.460938 -0.203125 21.367188 -0.175781 20.296875 -0.125 C 19.222656 -0.0703125 18.410156 -0.03125 17.859375 0 L 17.859375 -1.078125 C 19.085938 -1.078125 19.957031 -1.332031 20.46875 -1.84375 C 20.976562 -2.351562 21.234375 -3.320312 21.234375 -4.75 L 21.234375 -19.5 C 21.234375 -20.550781 21.144531 -21.519531 20.96875 -22.40625 C 20.800781 -23.289062 20.421875 -24.003906 19.828125 -24.546875 C 19.234375 -25.097656 18.320312 -25.375 17.09375 -25.375 C 15.664062 -25.375 14.414062 -24.960938 13.34375 -24.140625 C 12.269531 -23.328125 11.4375 -22.210938 10.84375 -20.796875 C 10.25 -19.390625 9.953125 -17.816406 9.953125 -16.078125 L 9.953125 -4.75 C 9.953125 -3.320312 10.207031 -2.351562 10.71875 -1.84375 C 11.226562 -1.332031 12.097656 -1.078125 13.328125 -1.078125 L 13.328125 0 C 12.773438 -0.03125 11.960938 -0.0703125 10.890625 -0.125 C 9.828125 -0.175781 8.734375 -0.203125 7.609375 -0.203125 C 6.484375 -0.203125 5.320312 -0.175781 4.125 -0.125 C 2.9375 -0.0703125 2.054688 -0.03125 1.484375 0 L 1.484375 -1.078125 C 2.878906 -1.078125 3.875 -1.332031 4.46875 -1.84375 C 5.0625 -2.351562 5.359375 -3.320312 5.359375 -4.75 L 5.359375 -20.71875 C 5.359375 -22.25 5.082031 -23.378906 4.53125 -24.109375 C 3.988281 -24.847656 2.972656 -25.21875 1.484375 -25.21875 L 1.484375 -26.296875 C 2.566406 -26.191406 3.617188 -26.140625 4.640625 -26.140625 C 5.628906 -26.140625 6.570312 -26.195312 7.46875 -26.3125 C 8.375 -26.4375 9.203125 -26.613281 9.953125 -26.84375 L 9.953125 -20.828125 C 10.835938 -23.140625 12.070312 -24.742188 13.65625 -25.640625 C 15.238281 -26.546875 16.894531 -27 18.625 -27 Z M 18.625 -27 "/></g></g></g><g fill="#000000" fill-opacity="1"><g transform="translate(1056.203731, 737.285888)"><g><path d="M 10.625 -27 C 11.976562 -27 13.128906 -26.773438 14.078125 -26.328125 C 15.035156 -25.890625 15.738281 -25.484375 16.1875 -25.109375 C 17.300781 -24.191406 17.976562 -24.804688 18.21875 -26.953125 L 19.390625 -26.953125 C 19.328125 -25.992188 19.273438 -24.859375 19.234375 -23.546875 C 19.203125 -22.242188 19.1875 -20.488281 19.1875 -18.28125 L 18.015625 -18.28125 C 17.816406 -19.53125 17.46875 -20.75 16.96875 -21.9375 C 16.476562 -23.132812 15.753906 -24.113281 14.796875 -24.875 C 13.847656 -25.644531 12.609375 -26.03125 11.078125 -26.03125 C 9.890625 -26.03125 8.894531 -25.695312 8.09375 -25.03125 C 7.289062 -24.375 6.890625 -23.398438 6.890625 -22.109375 C 6.890625 -21.085938 7.195312 -20.207031 7.8125 -19.46875 C 8.425781 -18.738281 9.222656 -18.054688 10.203125 -17.421875 C 11.191406 -16.796875 12.265625 -16.109375 13.421875 -15.359375 C 14.710938 -14.546875 15.882812 -13.710938 16.9375 -12.859375 C 18 -12.015625 18.84375 -11.082031 19.46875 -10.0625 C 20.101562 -9.039062 20.421875 -7.832031 20.421875 -6.4375 C 20.421875 -4.863281 20.007812 -3.550781 19.1875 -2.5 C 18.375 -1.445312 17.3125 -0.644531 16 -0.09375 C 14.6875 0.445312 13.25 0.71875 11.6875 0.71875 C 10.9375 0.71875 10.226562 0.65625 9.5625 0.53125 C 8.90625 0.414062 8.269531 0.238281 7.65625 0 C 7.3125 -0.164062 6.960938 -0.367188 6.609375 -0.609375 C 6.253906 -0.847656 5.90625 -1.101562 5.5625 -1.375 C 5.21875 -1.644531 4.910156 -1.632812 4.640625 -1.34375 C 4.367188 -1.0625 4.164062 -0.492188 4.03125 0.359375 L 2.859375 0.359375 C 2.921875 -0.734375 2.96875 -2.0625 3 -3.625 C 3.039062 -5.1875 3.0625 -7.265625 3.0625 -9.859375 L 4.234375 -9.859375 C 4.472656 -7.953125 4.8125 -6.28125 5.25 -4.84375 C 5.695312 -3.414062 6.394531 -2.300781 7.34375 -1.5 C 8.300781 -0.707031 9.628906 -0.3125 11.328125 -0.3125 C 12.015625 -0.3125 12.707031 -0.460938 13.40625 -0.765625 C 14.101562 -1.066406 14.6875 -1.578125 15.15625 -2.296875 C 15.632812 -3.015625 15.875 -3.96875 15.875 -5.15625 C 15.875 -6.65625 15.328125 -7.878906 14.234375 -8.828125 C 13.148438 -9.785156 11.773438 -10.789062 10.109375 -11.84375 C 8.878906 -12.625 7.726562 -13.40625 6.65625 -14.1875 C 5.582031 -14.96875 4.710938 -15.851562 4.046875 -16.84375 C 3.390625 -17.832031 3.0625 -19.023438 3.0625 -20.421875 C 3.0625 -21.953125 3.410156 -23.203125 4.109375 -24.171875 C 4.804688 -25.140625 5.734375 -25.851562 6.890625 -26.3125 C 8.046875 -26.769531 9.289062 -27 10.625 -27 Z M 10.625 -27 "/></g></g></g><g fill="#000000" fill-opacity="1"><g transform="translate(1079.021227, 737.285888)"><g><path d="M 24.65625 -26.84375 L 24.65625 -5.515625 C 24.65625 -3.984375 24.9375 -2.847656 25.5 -2.109375 C 26.0625 -1.378906 27.070312 -1.015625 28.53125 -1.015625 L 28.53125 0.046875 C 27.476562 -0.0546875 26.425781 -0.109375 25.375 -0.109375 C 24.382812 -0.109375 23.4375 -0.0546875 22.53125 0.046875 C 21.632812 0.148438 20.8125 0.335938 20.0625 0.609375 L 20.0625 -5.40625 C 19.207031 -3.195312 18.003906 -1.625 16.453125 -0.6875 C 14.910156 0.25 13.320312 0.71875 11.6875 0.71875 C 10.5 0.71875 9.460938 0.546875 8.578125 0.203125 C 7.691406 -0.140625 6.957031 -0.613281 6.375 -1.21875 C 5.726562 -1.90625 5.285156 -2.789062 5.046875 -3.875 C 4.816406 -4.96875 4.703125 -6.3125 4.703125 -7.90625 L 4.703125 -20.71875 C 4.703125 -22.25 4.425781 -23.378906 3.875 -24.109375 C 3.332031 -24.847656 2.3125 -25.21875 0.8125 -25.21875 L 0.8125 -26.296875 C 1.90625 -26.191406 2.960938 -26.140625 3.984375 -26.140625 C 4.972656 -26.140625 5.914062 -26.195312 6.8125 -26.3125 C 7.71875 -26.4375 8.546875 -26.613281 9.296875 -26.84375 L 9.296875 -6.796875 C 9.296875 -5.734375 9.363281 -4.757812 9.5 -3.875 C 9.632812 -2.988281 9.972656 -2.273438 10.515625 -1.734375 C 11.054688 -1.191406 11.941406 -0.921875 13.171875 -0.921875 C 14.492188 -0.921875 15.675781 -1.328125 16.71875 -2.140625 C 17.757812 -2.960938 18.578125 -4.070312 19.171875 -5.46875 C 19.765625 -6.863281 20.0625 -8.425781 20.0625 -10.15625 L 20.0625 -20.71875 C 20.0625 -22.25 19.785156 -23.378906 19.234375 -24.109375 C 18.691406 -24.847656 17.675781 -25.21875 16.1875 -25.21875 L 16.1875 -26.296875 C 17.269531 -26.191406 18.320312 -26.140625 19.34375 -26.140625 C 20.332031 -26.140625 21.273438 -26.195312 22.171875 -26.3125 C 23.078125 -26.4375 23.90625 -26.613281 24.65625 -26.84375 Z M 24.65625 -26.84375 "/></g></g></g><g fill="#000000" fill-opacity="1"><g transform="translate(1108.67884, 737.285888)"><g><path d="M 17.359375 -27 C 18.273438 -27 19.082031 -26.8125 19.78125 -26.4375 C 20.476562 -26.0625 21.019531 -25.578125 21.40625 -24.984375 C 21.800781 -24.390625 22 -23.71875 22 -22.96875 C 22 -22.113281 21.734375 -21.363281 21.203125 -20.71875 C 20.679688 -20.070312 19.976562 -19.75 19.09375 -19.75 C 18.375 -19.75 17.742188 -19.976562 17.203125 -20.4375 C 16.660156 -20.90625 16.390625 -21.5625 16.390625 -22.40625 C 16.390625 -23.050781 16.566406 -23.601562 16.921875 -24.0625 C 17.273438 -24.519531 17.675781 -24.890625 18.125 -25.171875 C 17.882812 -25.503906 17.523438 -25.671875 17.046875 -25.671875 C 15.992188 -25.671875 15.023438 -25.351562 14.140625 -24.71875 C 13.253906 -24.09375 12.503906 -23.285156 11.890625 -22.296875 C 11.273438 -21.316406 10.796875 -20.273438 10.453125 -19.171875 C 10.117188 -18.066406 9.953125 -17.035156 9.953125 -16.078125 L 9.953125 -5.265625 C 9.953125 -3.585938 10.4375 -2.46875 11.40625 -1.90625 C 12.375 -1.351562 13.691406 -1.078125 15.359375 -1.078125 L 15.359375 0 C 14.578125 -0.03125 13.472656 -0.0703125 12.046875 -0.125 C 10.617188 -0.175781 9.101562 -0.203125 7.5 -0.203125 C 6.34375 -0.203125 5.191406 -0.175781 4.046875 -0.125 C 2.910156 -0.0703125 2.054688 -0.03125 1.484375 0 L 1.484375 -1.078125 C 2.878906 -1.078125 3.875 -1.332031 4.46875 -1.84375 C 5.0625 -2.351562 5.359375 -3.320312 5.359375 -4.75 L 5.359375 -20.71875 C 5.359375 -22.25 5.082031 -23.378906 4.53125 -24.109375 C 3.988281 -24.847656 2.972656 -25.21875 1.484375 -25.21875 L 1.484375 -26.296875 C 2.566406 -26.191406 3.617188 -26.140625 4.640625 -26.140625 C 5.628906 -26.140625 6.570312 -26.195312 7.46875 -26.3125 C 8.375 -26.4375 9.203125 -26.613281 9.953125 -26.84375 L 9.953125 -20.46875 C 10.328125 -21.457031 10.863281 -22.453125 11.5625 -23.453125 C 12.257812 -24.460938 13.097656 -25.304688 14.078125 -25.984375 C 15.066406 -26.660156 16.160156 -27 17.359375 -27 Z M 17.359375 -27 "/></g></g></g><g fill="#000000" fill-opacity="1"><g transform="translate(1131.394239, 737.285888)"><g><path d="M 8.734375 0.359375 C 7.335938 0.359375 6.128906 0.0976562 5.109375 -0.421875 C 4.085938 -0.953125 3.3125 -1.691406 2.78125 -2.640625 C 2.25 -3.597656 1.984375 -4.707031 1.984375 -5.96875 C 1.984375 -7.46875 2.332031 -8.691406 3.03125 -9.640625 C 3.726562 -10.597656 4.617188 -11.363281 5.703125 -11.9375 C 6.796875 -12.519531 7.945312 -13.003906 9.15625 -13.390625 C 10.363281 -13.785156 11.507812 -14.160156 12.59375 -14.515625 C 13.6875 -14.878906 14.582031 -15.296875 15.28125 -15.765625 C 15.976562 -16.242188 16.328125 -16.875 16.328125 -17.65625 L 16.328125 -20.828125 C 16.328125 -22.253906 16.113281 -23.34375 15.6875 -24.09375 C 15.269531 -24.84375 14.703125 -25.34375 13.984375 -25.59375 C 13.273438 -25.851562 12.476562 -25.984375 11.59375 -25.984375 C 10.738281 -25.984375 9.828125 -25.863281 8.859375 -25.625 C 7.890625 -25.382812 7.113281 -24.890625 6.53125 -24.140625 C 7.175781 -24.003906 7.738281 -23.664062 8.21875 -23.125 C 8.695312 -22.582031 8.9375 -21.882812 8.9375 -21.03125 C 8.9375 -20.175781 8.660156 -19.503906 8.109375 -19.015625 C 7.566406 -18.523438 6.875 -18.28125 6.03125 -18.28125 C 5.039062 -18.28125 4.316406 -18.59375 3.859375 -19.21875 C 3.398438 -19.84375 3.171875 -20.550781 3.171875 -21.34375 C 3.171875 -22.226562 3.390625 -22.941406 3.828125 -23.484375 C 4.265625 -24.023438 4.828125 -24.535156 5.515625 -25.015625 C 6.296875 -25.554688 7.304688 -26.019531 8.546875 -26.40625 C 9.785156 -26.800781 11.191406 -27 12.765625 -27 C 14.160156 -27 15.347656 -26.835938 16.328125 -26.515625 C 17.316406 -26.191406 18.132812 -25.722656 18.78125 -25.109375 C 19.664062 -24.296875 20.242188 -23.300781 20.515625 -22.125 C 20.785156 -20.957031 20.921875 -19.554688 20.921875 -17.921875 L 20.921875 -3.71875 C 20.921875 -2.875 21.046875 -2.265625 21.296875 -1.890625 C 21.554688 -1.515625 21.960938 -1.328125 22.515625 -1.328125 C 22.890625 -1.328125 23.242188 -1.410156 23.578125 -1.578125 C 23.921875 -1.753906 24.332031 -2.03125 24.8125 -2.40625 L 25.375 -1.53125 C 24.65625 -0.988281 23.972656 -0.535156 23.328125 -0.171875 C 22.679688 0.179688 21.8125 0.359375 20.71875 0.359375 C 19.738281 0.359375 18.925781 0.191406 18.28125 -0.140625 C 17.632812 -0.484375 17.144531 -0.988281 16.8125 -1.65625 C 16.488281 -2.320312 16.328125 -3.164062 16.328125 -4.1875 C 15.410156 -2.65625 14.3125 -1.515625 13.03125 -0.765625 C 11.757812 -0.015625 10.328125 0.359375 8.734375 0.359375 Z M 10.5625 -1.6875 C 11.6875 -1.6875 12.734375 -2.007812 13.703125 -2.65625 C 14.671875 -3.300781 15.546875 -4.269531 16.328125 -5.5625 L 16.328125 -15.5625 C 15.921875 -14.988281 15.328125 -14.503906 14.546875 -14.109375 C 13.765625 -13.722656 12.914062 -13.332031 12 -12.9375 C 11.082031 -12.550781 10.203125 -12.09375 9.359375 -11.5625 C 8.523438 -11.03125 7.835938 -10.335938 7.296875 -9.484375 C 6.753906 -8.640625 6.484375 -7.535156 6.484375 -6.171875 C 6.484375 -4.816406 6.847656 -3.726562 7.578125 -2.90625 C 8.304688 -2.09375 9.300781 -1.6875 10.5625 -1.6875 Z M 10.5625 -1.6875 "/></g></g></g><g fill="#000000" fill-opacity="1"><g transform="translate(1156.815056, 737.285888)"><g><path d="M 18.328125 -27 C 19.515625 -27 20.550781 -26.828125 21.4375 -26.484375 C 22.320312 -26.148438 23.054688 -25.675781 23.640625 -25.0625 C 24.285156 -24.382812 24.722656 -23.5 24.953125 -22.40625 C 25.191406 -21.320312 25.3125 -19.976562 25.3125 -18.375 L 25.3125 -4.75 C 25.3125 -3.320312 25.609375 -2.351562 26.203125 -1.84375 C 26.804688 -1.332031 27.804688 -1.078125 29.203125 -1.078125 L 29.203125 0 C 28.617188 -0.03125 27.726562 -0.0703125 26.53125 -0.125 C 25.34375 -0.175781 24.191406 -0.203125 23.078125 -0.203125 C 21.953125 -0.203125 20.851562 -0.175781 19.78125 -0.125 C 18.707031 -0.0703125 17.898438 -0.03125 17.359375 0 L 17.359375 -1.078125 C 18.578125 -1.078125 19.441406 -1.332031 19.953125 -1.84375 C 20.460938 -2.351562 20.71875 -3.320312 20.71875 -4.75 L 20.71875 -19.5 C 20.71875 -20.550781 20.648438 -21.519531 20.515625 -22.40625 C 20.378906 -23.289062 20.039062 -24.003906 19.5 -24.546875 C 18.957031 -25.097656 18.070312 -25.375 16.84375 -25.375 C 15.519531 -25.375 14.335938 -24.960938 13.296875 -24.140625 C 12.253906 -23.328125 11.4375 -22.210938 10.84375 -20.796875 C 10.25 -19.390625 9.953125 -17.816406 9.953125 -16.078125 L 9.953125 -4.75 C 9.953125 -3.320312 10.207031 -2.351562 10.71875 -1.84375 C 11.226562 -1.332031 12.097656 -1.078125 13.328125 -1.078125 L 13.328125 0 C 12.773438 -0.03125 11.960938 -0.0703125 10.890625 -0.125 C 9.828125 -0.175781 8.734375 -0.203125 7.609375 -0.203125 C 6.484375 -0.203125 5.320312 -0.175781 4.125 -0.125 C 2.9375 -0.0703125 2.054688 -0.03125 1.484375 0 L 1.484375 -1.078125 C 2.878906 -1.078125 3.875 -1.332031 4.46875 -1.84375 C 5.0625 -2.351562 5.359375 -3.320312 5.359375 -4.75 L 5.359375 -20.71875 C 5.359375 -22.25 5.082031 -23.378906 4.53125 -24.109375 C 3.988281 -24.847656 2.972656 -25.21875 1.484375 -25.21875 L 1.484375 -26.296875 C 2.566406 -26.191406 3.617188 -26.140625 4.640625 -26.140625 C 5.628906 -26.140625 6.570312 -26.195312 7.46875 -26.3125 C 8.375 -26.4375 9.203125 -26.613281 9.953125 -26.84375 L 9.953125 -20.828125 C 10.835938 -23.035156 12.046875 -24.613281 13.578125 -25.5625 C 15.109375 -26.519531 16.691406 -27 18.328125 -27 Z M 33.6875 -27 C 34.882812 -27 35.921875 -26.828125 36.796875 -26.484375 C 37.679688 -26.148438 38.414062 -25.675781 39 -25.0625 C 39.644531 -24.382812 40.085938 -23.5 40.328125 -22.40625 C 40.566406 -21.320312 40.6875 -19.976562 40.6875 -18.375 L 40.6875 -4.75 C 40.6875 -3.320312 40.984375 -2.351562 41.578125 -1.84375 C 42.171875 -1.332031 43.164062 -1.078125 44.5625 -1.078125 L 44.5625 0 C 43.988281 -0.03125 43.101562 -0.0703125 41.90625 -0.125 C 40.71875 -0.175781 39.5625 -0.203125 38.4375 -0.203125 C 37.3125 -0.203125 36.210938 -0.175781 35.140625 -0.125 C 34.066406 -0.0703125 33.257812 -0.03125 32.71875 0 L 32.71875 -1.078125 C 33.945312 -1.078125 34.816406 -1.332031 35.328125 -1.84375 C 35.835938 -2.351562 36.09375 -3.320312 36.09375 -4.75 L 36.09375 -19.5 C 36.09375 -20.550781 36.023438 -21.519531 35.890625 -22.40625 C 35.753906 -23.289062 35.410156 -24.003906 34.859375 -24.546875 C 34.316406 -25.097656 33.429688 -25.375 32.203125 -25.375 C 30.878906 -25.375 29.695312 -24.960938 28.65625 -24.140625 C 27.625 -23.328125 26.804688 -22.222656 26.203125 -20.828125 C 25.609375 -19.429688 25.3125 -17.863281 25.3125 -16.125 L 25.171875 -20.875 C 26.085938 -23.226562 27.328125 -24.835938 28.890625 -25.703125 C 30.453125 -26.566406 32.050781 -27 33.6875 -27 Z M 33.6875 -27 "/></g></g></g><g fill="#000000" fill-opacity="1"><g transform="translate(1202.143717, 737.285888)"><g><path d="M 24.65625 -26.84375 L 24.65625 -5.515625 C 24.65625 -3.984375 24.9375 -2.847656 25.5 -2.109375 C 26.0625 -1.378906 27.070312 -1.015625 28.53125 -1.015625 L 28.53125 0.046875 C 27.476562 -0.0546875 26.425781 -0.109375 25.375 -0.109375 C 24.382812 -0.109375 23.4375 -0.0546875 22.53125 0.046875 C 21.632812 0.148438 20.8125 0.335938 20.0625 0.609375 L 20.0625 -5.40625 C 19.207031 -3.195312 18.003906 -1.625 16.453125 -0.6875 C 14.910156 0.25 13.320312 0.71875 11.6875 0.71875 C 10.5 0.71875 9.460938 0.546875 8.578125 0.203125 C 7.691406 -0.140625 6.957031 -0.613281 6.375 -1.21875 C 5.726562 -1.90625 5.285156 -2.789062 5.046875 -3.875 C 4.816406 -4.96875 4.703125 -6.3125 4.703125 -7.90625 L 4.703125 -20.71875 C 4.703125 -22.25 4.425781 -23.378906 3.875 -24.109375 C 3.332031 -24.847656 2.3125 -25.21875 0.8125 -25.21875 L 0.8125 -26.296875 C 1.90625 -26.191406 2.960938 -26.140625 3.984375 -26.140625 C 4.972656 -26.140625 5.914062 -26.195312 6.8125 -26.3125 C 7.71875 -26.4375 8.546875 -26.613281 9.296875 -26.84375 L 9.296875 -6.796875 C 9.296875 -5.734375 9.363281 -4.757812 9.5 -3.875 C 9.632812 -2.988281 9.972656 -2.273438 10.515625 -1.734375 C 11.054688 -1.191406 11.941406 -0.921875 13.171875 -0.921875 C 14.492188 -0.921875 15.675781 -1.328125 16.71875 -2.140625 C 17.757812 -2.960938 18.578125 -4.070312 19.171875 -5.46875 C 19.765625 -6.863281 20.0625 -8.425781 20.0625 -10.15625 L 20.0625 -20.71875 C 20.0625 -22.25 19.785156 -23.378906 19.234375 -24.109375 C 18.691406 -24.847656 17.675781 -25.21875 16.1875 -25.21875 L 16.1875 -26.296875 C 17.269531 -26.191406 18.320312 -26.140625 19.34375 -26.140625 C 20.332031 -26.140625 21.273438 -26.195312 22.171875 -26.3125 C 23.078125 -26.4375 23.90625 -26.613281 24.65625 -26.84375 Z M 24.65625 -26.84375 "/></g></g></g><g fill="#000000" fill-opacity="1"><g transform="translate(1231.80133, 737.285888)"><g><path d="M 17.359375 -27 C 18.273438 -27 19.082031 -26.8125 19.78125 -26.4375 C 20.476562 -26.0625 21.019531 -25.578125 21.40625 -24.984375 C 21.800781 -24.390625 22 -23.71875 22 -22.96875 C 22 -22.113281 21.734375 -21.363281 21.203125 -20.71875 C 20.679688 -20.070312 19.976562 -19.75 19.09375 -19.75 C 18.375 -19.75 17.742188 -19.976562 17.203125 -20.4375 C 16.660156 -20.90625 16.390625 -21.5625 16.390625 -22.40625 C 16.390625 -23.050781 16.566406 -23.601562 16.921875 -24.0625 C 17.273438 -24.519531 17.675781 -24.890625 18.125 -25.171875 C 17.882812 -25.503906 17.523438 -25.671875 17.046875 -25.671875 C 15.992188 -25.671875 15.023438 -25.351562 14.140625 -24.71875 C 13.253906 -24.09375 12.503906 -23.285156 11.890625 -22.296875 C 11.273438 -21.316406 10.796875 -20.273438 10.453125 -19.171875 C 10.117188 -18.066406 9.953125 -17.035156 9.953125 -16.078125 L 9.953125 -5.265625 C 9.953125 -3.585938 10.4375 -2.46875 11.40625 -1.90625 C 12.375 -1.351562 13.691406 -1.078125 15.359375 -1.078125 L 15.359375 0 C 14.578125 -0.03125 13.472656 -0.0703125 12.046875 -0.125 C 10.617188 -0.175781 9.101562 -0.203125 7.5 -0.203125 C 6.34375 -0.203125 5.191406 -0.175781 4.046875 -0.125 C 2.910156 -0.0703125 2.054688 -0.03125 1.484375 0 L 1.484375 -1.078125 C 2.878906 -1.078125 3.875 -1.332031 4.46875 -1.84375 C 5.0625 -2.351562 5.359375 -3.320312 5.359375 -4.75 L 5.359375 -20.71875 C 5.359375 -22.25 5.082031 -23.378906 4.53125 -24.109375 C 3.988281 -24.847656 2.972656 -25.21875 1.484375 -25.21875 L 1.484375 -26.296875 C 2.566406 -26.191406 3.617188 -26.140625 4.640625 -26.140625 C 5.628906 -26.140625 6.570312 -26.195312 7.46875 -26.3125 C 8.375 -26.4375 9.203125 -26.613281 9.953125 -26.84375 L 9.953125 -20.46875 C 10.328125 -21.457031 10.863281 -22.453125 11.5625 -23.453125 C 12.257812 -24.460938 13.097656 -25.304688 14.078125 -25.984375 C 15.066406 -26.660156 16.160156 -27 17.359375 -27 Z M 17.359375 -27 "/></g></g></g></svg>